<svg width="140" height="14" viewBox="0 0 240 28" fill="none" xmlns="http://www.w3.org/2000/svg">
<path d="M18.125 27H0.916016V24.0645L9.44141 14.7656C10.6719 13.3945 11.5449 12.252 12.0605 11.3379C12.5879 10.4121 12.8516 9.48633 12.8516 8.56055C12.8516 7.3418 12.5059 6.35742 11.8145 5.60742C11.1348 4.85742 10.2148 4.48242 9.05469 4.48242C7.67188 4.48242 6.59961 4.9043 5.83789 5.74805C5.07617 6.5918 4.69531 7.74609 4.69531 9.21094H0.423828C0.423828 7.65234 0.775391 6.25195 1.47852 5.00977C2.19336 3.75586 3.20703 2.7832 4.51953 2.0918C5.84375 1.40039 7.36719 1.05469 9.08984 1.05469C11.5742 1.05469 13.5312 1.68164 14.9609 2.93555C16.4023 4.17773 17.123 5.90039 17.123 8.10352C17.123 9.38086 16.7598 10.7227 16.0332 12.1289C15.3184 13.5234 14.1406 15.1113 12.5 16.8926L6.24219 23.5898H18.125V27ZM38.5859 27H21.377V24.0645L29.9023 14.7656C31.1328 13.3945 32.0059 12.252 32.5215 11.3379C33.0488 10.4121 33.3125 9.48633 33.3125 8.56055C33.3125 7.3418 32.9668 6.35742 32.2754 5.60742C31.5957 4.85742 30.6758 4.48242 29.5156 4.48242C28.1328 4.48242 27.0605 4.9043 26.2988 5.74805C25.5371 6.5918 25.1562 7.74609 25.1562 9.21094H20.8848C20.8848 7.65234 21.2363 6.25195 21.9395 5.00977C22.6543 3.75586 23.668 2.7832 24.9805 2.0918C26.3047 1.40039 27.8281 1.05469 29.5508 1.05469C32.0352 1.05469 33.9922 1.68164 35.4219 2.93555C36.8633 4.17773 37.584 5.90039 37.584 8.10352C37.584 9.38086 37.2207 10.7227 36.4941 12.1289C35.7793 13.5234 34.6016 15.1113 32.9609 16.8926L26.7031 23.5898H38.5859V27ZM57.2539 1.40625L64.6367 21.0234L72.002 1.40625H77.75V27H73.3203V18.5625L73.7598 7.27734L66.2012 27H63.0195L55.4785 7.29492L55.918 18.5625V27H51.4883V1.40625H57.2539ZM93.9746 27C93.7871 26.6367 93.623 26.0449 93.4824 25.2246C92.123 26.6426 90.459 27.3516 88.4902 27.3516C86.5801 27.3516 85.0215 26.8066 83.8145 25.7168C82.6074 24.627 82.0039 23.2793 82.0039 21.6738C82.0039 19.6465 82.7539 18.0938 84.2539 17.0156C85.7656 15.9258 87.9219 15.3809 90.7227 15.3809H93.3418V14.1328C93.3418 13.1484 93.0664 12.3633 92.5156 11.7773C91.9648 11.1797 91.127 10.8809 90.002 10.8809C89.0293 10.8809 88.2324 11.127 87.6113 11.6191C86.9902 12.0996 86.6797 12.7148 86.6797 13.4648H82.4082C82.4082 12.4219 82.7539 11.4492 83.4453 10.5469C84.1367 9.63281 85.0742 8.91797 86.2578 8.40234C87.4531 7.88672 88.7832 7.62891 90.248 7.62891C92.4746 7.62891 94.25 8.19141 95.5742 9.31641C96.8984 10.4297 97.5781 12 97.6133 14.0273V22.6055C97.6133 24.3164 97.8535 25.6816 98.334 26.7012V27H93.9746ZM89.2812 23.9238C90.125 23.9238 90.916 23.7188 91.6543 23.3086C92.4043 22.8984 92.9668 22.3477 93.3418 21.6562V18.0703H91.0391C89.457 18.0703 88.2676 18.3457 87.4707 18.8965C86.6738 19.4473 86.2754 20.2266 86.2754 21.2344C86.2754 22.0547 86.5449 22.7109 87.084 23.2031C87.6348 23.6836 88.3672 23.9238 89.2812 23.9238ZM112.045 11.8828C111.482 11.7891 110.902 11.7422 110.305 11.7422C108.348 11.7422 107.029 12.4922 106.35 13.9922V27H102.078V7.98047H106.156L106.262 10.1074C107.293 8.45508 108.723 7.62891 110.551 7.62891C111.16 7.62891 111.664 7.71094 112.062 7.875L112.045 11.8828ZM122.205 23.9414C123.271 23.9414 124.156 23.6309 124.859 23.0098C125.562 22.3887 125.938 21.6211 125.984 20.707H130.01C129.963 21.8906 129.594 22.998 128.902 24.0293C128.211 25.0488 127.273 25.8574 126.09 26.4551C124.906 27.0527 123.629 27.3516 122.258 27.3516C119.598 27.3516 117.488 26.4902 115.93 24.7676C114.371 23.0449 113.592 20.666 113.592 17.6309V17.1914C113.592 14.2969 114.365 11.9824 115.912 10.248C117.459 8.50195 119.568 7.62891 122.24 7.62891C124.502 7.62891 126.342 8.29102 127.76 9.61523C129.189 10.9277 129.939 12.6562 130.01 14.8008H125.984C125.938 13.7109 125.562 12.8145 124.859 12.1113C124.168 11.4082 123.283 11.0566 122.205 11.0566C120.822 11.0566 119.756 11.5605 119.006 12.5684C118.256 13.5645 117.875 15.082 117.863 17.1211V17.8066C117.863 19.8691 118.232 21.4102 118.971 22.4297C119.721 23.4375 120.799 23.9414 122.205 23.9414ZM137.445 10.0547C138.84 8.4375 140.604 7.62891 142.736 7.62891C146.791 7.62891 148.848 9.94336 148.906 14.5723V27H144.635V14.7305C144.635 13.418 144.348 12.4922 143.773 11.9531C143.211 11.4023 142.379 11.127 141.277 11.127C139.566 11.127 138.289 11.8887 137.445 13.4121V27H133.174V0H137.445V10.0547ZM179.141 27H161.932V24.0645L170.457 14.7656C171.688 13.3945 172.561 12.252 173.076 11.3379C173.604 10.4121 173.867 9.48633 173.867 8.56055C173.867 7.3418 173.521 6.35742 172.83 5.60742C172.15 4.85742 171.23 4.48242 170.07 4.48242C168.688 4.48242 167.615 4.9043 166.854 5.74805C166.092 6.5918 165.711 7.74609 165.711 9.21094H161.439C161.439 7.65234 161.791 6.25195 162.494 5.00977C163.209 3.75586 164.223 2.7832 165.535 2.0918C166.859 1.40039 168.383 1.05469 170.105 1.05469C172.59 1.05469 174.547 1.68164 175.977 2.93555C177.418 4.17773 178.139 5.90039 178.139 8.10352C178.139 9.38086 177.775 10.7227 177.049 12.1289C176.334 13.5234 175.156 15.1113 173.516 16.8926L167.258 23.5898H179.141V27ZM199.074 16.2246C199.074 19.9043 198.383 22.6816 197 24.5566C195.629 26.4199 193.537 27.3516 190.725 27.3516C187.959 27.3516 185.873 26.4434 184.467 24.627C183.072 22.7988 182.357 20.0977 182.322 16.5234V12.0938C182.322 8.41406 183.008 5.6543 184.379 3.81445C185.762 1.97461 187.865 1.05469 190.689 1.05469C193.49 1.05469 195.576 1.95117 196.947 3.74414C198.33 5.53711 199.039 8.2207 199.074 11.7949V16.2246ZM194.803 11.4434C194.803 9.04102 194.475 7.2832 193.818 6.16992C193.162 5.04492 192.119 4.48242 190.689 4.48242C189.295 4.48242 188.27 5.01562 187.613 6.08203C186.957 7.13672 186.611 8.78906 186.576 11.0391V16.8398C186.576 19.2305 186.91 21.0117 187.578 22.1836C188.246 23.3555 189.295 23.9414 190.725 23.9414C192.096 23.9414 193.109 23.4023 193.766 22.3242C194.422 21.2344 194.768 19.5352 194.803 17.2266V11.4434ZM214.42 27H210.166V6.45117L203.891 8.5957V4.99219L213.875 1.31836H214.42V27ZM239.434 8.15625C239.434 9.41016 239.111 10.5293 238.467 11.5137C237.822 12.4863 236.943 13.2539 235.83 13.8164C237.166 14.4375 238.191 15.2871 238.906 16.3652C239.633 17.4434 239.996 18.6621 239.996 20.0215C239.996 22.2715 239.234 24.0586 237.711 25.3828C236.188 26.6953 234.16 27.3516 231.629 27.3516C229.086 27.3516 227.047 26.6895 225.512 25.3652C223.988 24.041 223.227 22.2598 223.227 20.0215C223.227 18.6504 223.59 17.4199 224.316 16.3301C225.043 15.2402 226.062 14.4023 227.375 13.8164C226.273 13.2539 225.4 12.4863 224.756 11.5137C224.123 10.5293 223.807 9.41016 223.807 8.15625C223.807 5.97656 224.51 4.24805 225.916 2.9707C227.322 1.69336 229.221 1.05469 231.611 1.05469C234.014 1.05469 235.918 1.69336 237.324 2.9707C238.73 4.24805 239.434 5.97656 239.434 8.15625ZM235.725 19.8105C235.725 18.5449 235.344 17.5254 234.582 16.752C233.832 15.9668 232.836 15.5742 231.594 15.5742C230.352 15.5742 229.355 15.9609 228.605 16.7344C227.867 17.5078 227.498 18.5332 227.498 19.8105C227.498 21.0645 227.861 22.0664 228.588 22.8164C229.326 23.5664 230.34 23.9414 231.629 23.9414C232.918 23.9414 233.92 23.5781 234.635 22.8516C235.361 22.125 235.725 21.1113 235.725 19.8105ZM235.18 8.31445C235.18 7.20117 234.857 6.28711 234.213 5.57227C233.568 4.8457 232.701 4.48242 231.611 4.48242C230.521 4.48242 229.66 4.82813 229.027 5.51953C228.395 6.19922 228.078 7.13086 228.078 8.31445C228.078 9.48633 228.395 10.418 229.027 11.1094C229.672 11.8008 230.539 12.1465 231.629 12.1465C232.719 12.1465 233.58 11.8008 234.213 11.1094C234.857 10.418 235.18 9.48633 235.18 8.31445Z" fill="#243D6F"/>
</svg>
